# xmcd
#
# Track frame offsets: 
#        150
#        14299
#        30917
#        48324
#        62717
#        82202
#        100563
#        114776
#        132568
#        146300
#        160536
#        180927
#
# Disc length: 2777 seconds
#
# Revision: 3
# Processed by: cddbd v1.5.2PL0 Copyright (c) Steve Scherf et al.
# Submitted via: ExactAudioCopy v0.99pb4
#
DISCID=870ad70c
DTITLE=Scream - Vinyl
DYEAR=2002
DGENRE=Folk/Rock
TTITLE0=Chlini Wält
TTITLE1=La stah
TTITLE2=Irgendeinisch
TTITLE3=Fernseh
TTITLE4=Loser
TTITLE5=Liebesbrief
TTITLE6=Stärn
TTITLE7=I däm Summer
TTITLE8=Sandchaschte
TTITLE9=Dr Bescht
TTITLE10=Mängisch bruchts ganz weni meh
TTITLE11=Filmriss
EXTD=
EXTT0=
EXTT1=
EXTT2=
EXTT3=
EXTT4=
EXTT5=
EXTT6=
EXTT7=
EXTT8=
EXTT9=
EXTT10=
EXTT11=
PLAYORDER=
